<?xml version="1.0" encoding="UTF-8"?><svg xmlns="http://www.w3.org/2000/svg" xmlns:xlink="http://www.w3.org/1999/xlink" viewBox="0 0 2922 400" xmlns:v="https://vecta.io/nano"><style><![CDATA[.R{isolation:isolate}.S{stroke-linecap:round}.T{stroke-linejoin:round}.U{stroke-width:0}.V{fill:#75aefd}]]></style><defs><linearGradient id="A" x1="2311.69" y1="-574.9" x2="553.57" y2="1026.6" xlink:href="#H"><stop offset="0" stop-color="#cb62f8"/><stop offset=".26" stop-color="#687dfc"/><stop offset=".43" stop-color="#308eff"/><stop offset=".64" stop-color="#07a1e4"/><stop offset=".68" stop-color="#00a5e0"/><stop offset="1" stop-color="#00d500"/></linearGradient><linearGradient id="B" x1="40.69" y1="200" x2="805.5" y2="200" xlink:href="#H"><stop offset="0" stop-color="#70afff"/><stop offset="1" stop-color="#af9efc"/></linearGradient><linearGradient id="C" x1="262.6" y1="256.56" x2="712.06" y2="20.07" xlink:href="#H"><stop offset="0" stop-color="#db91fb"/><stop offset="1" stop-color="#c897fc"/></linearGradient><linearGradient id="D" x1="1237.78" y1="637.98" x2="1709.26" y2="76.1" xlink:href="#H"><stop offset="0" stop-color="#4dc2e4"/><stop offset="1" stop-color="#7eacfe"/></linearGradient><linearGradient id="E" x1="1760.51" y1="96.46" x2="1782.42" y2="265.79" xlink:href="#H"><stop offset="0" stop-color="#6ab3fc"/><stop offset="1" stop-color="#5cbaf3"/></linearGradient><linearGradient id="F" x1="2162.67" y1="213.74" x2="2922" y2="213.74" xlink:href="#H"><stop offset="0" stop-color="#4cd0a3"/><stop offset="1" stop-color="#4cdd60"/></linearGradient><linearGradient id="G" x1="2662.663" y1="209.361" x2="237.03" y2="209.361" xlink:href="#H"><stop offset="0" stop-color="#fff" stop-opacity="0"/><stop offset=".5" stop-color="#fefefe"/><stop offset="1" stop-color="#fff" stop-opacity="0"/></linearGradient><linearGradient id="H" gradientUnits="userSpaceOnUse"/></defs><path transform="matrix(-1 0 0 -1 2922 400)" d="M0 0h2922v400H0z" fill="url(#A)"/><g opacity=".3"><path d="M-.5-.5h2923v401H-.5z" fill="#fff"/></g><path d="M789.38 65.37L660.49 0H185.7L56.81 65.37c-21.5 10.9-21.5 41.63 0 52.53l217.01 110.07c5.57 2.83 10.1 7.36 12.94 12.94L367.45 400h111.29l80.69-159.09a29.43 29.43 0 0 1 12.94-12.94L789.38 117.9c21.5-10.9 21.5-41.63 0-52.53z" fill="url(#B)"/><path d="M559.58 214.66c20.96-5.73 42.3-9.93 63.83-12.58l114.94-58.3c-23-2.74-46.23-3.39-69.39-1.91-192.17 25.97-157.67 46.11-194.85 48.08-9.39 3.27-18.01 7.92-26.88 12.12-7.63 3.61-14.89 7.98-22.34 11.98a13.59 13.59 0 0 1-5.22 1.73l26.43-14.5c6.68-3.71 13.39-7.23 19.32-12.32 75.06-42.12 163.58-63.98 249.81-59.27a454.35 454.35 0 0 1 41.96 4.54l32.18-16.32c21.5-10.9 21.5-41.63 0-52.53l-25.93-13.15c-35.31-4.69-71.71-4.99-109.22-.75 35.94-4.84 71.35-5.03 106.26-.75l-27.06-13.72c-19.03-1.05-38.07-.75-57.12.55-39.67 3.86-80.18 9.18-117.41 23.66-3.53 4.26-37.62 22.82-33.21 7.96l-7.52.99c54.46-25.19 112.77-33.04 172.26-39.34 9.33-.96 18.64-1.41 27.95-1.45l-19.6-9.94c-27.81 1.01-55.48 4.6-82.67 10.76-38.09 8.44-74.73 22.16-111.91 33.7 21.44-8.62 41.21-17.23 62.98-23.38 17.96-6.81 36.75-10.38 55.45-14.27 23.37-4.85 46.94-8.38 70.81-9.39.08 0 .16 0 .24-.01L660.49 0h-168.5l-38.56 17.85c-13.82 6.68-27.14 14.4-40.55 21.91-11.1 6.22-22.27 12.39-32.93 19.31l-64.7 43.27c-22.47 15.8-44.39 32.37-66.43 48.76l-45.96 34.87c-1.55 1.19-3.05 2.44-4.55 3.7l1.9.97c34.22-25.85 69.3-50.49 105.67-73.3l-29.18 21.79a16.84 16.84 0 0 0 6.82-2.5l28.4-19.78c5.14-3.54 10.41-6.9 15.63-10.33.06.1.13.2.19.3l-52.62 39.3.71 1.02c25.22-17.17 50.79-33.8 77.37-48.86-.14.91-.61 1.73-1.32 2.31l-19.42 15.24c-.4.32-1.01.39-1.4.71-1.25.87-2.38 1.9-3.37 3.06-2.2 3.07-3.77 6.68-6.33 9.37-3.65 6.02-19.05 11.95-7.48 11.42l-30.7 23.54c5.43 4.18-9.1 9.95-11.76 13.83l-37.27 30.1 14.97 7.59c3.56-2.37 7.03-4.89 10.54-7.33l.67.59c-.4.78-.91 1.51-1.5 2.16l-7.16 5.87 8.91 4.52 2.9-1.82c11.83-7.58 23.17-15.91 34.65-24.03l28.47-20.43c2.18-1.56 4.52-2.91 6.78-4.35-13.72 10.53-27.95 20.27-41.77 30.56-9.48 7.06-19.44 13.54-28.28 21.45l10.45 5.3c5.57 2.83 10.1 7.36 12.94 12.94l15.06 29.7c11.15-7.92 22.55-15.47 34.63-22.03 4.68-2.54 9.09-5.55 13.63-8.34-4.9 4.37-5 9.55-11.91 11.14 11.73-.42 22.59-14.15 35.53-16.2-5.12 7.73-14.86 9.65-19.82 17.92 21.62-11.55 43.4-22.04 62.99-34.83-20.33 25.7-67.78 39.08-85.03 70.22l-14.47 12.76 1.46 2.89c13.45-7.36 25.3-16.49 39.06-22.27 1.88-1.1 1.3.69 1.63 2.45.12.23 15.26-10.08 15.01-8.86 1.27.69-32.9 24.94-20.45 21.43l-27.23 23.06.83 1.64 51.83-33.59c1.67.65-5.91 4.34-5.92 4.71 57.53-19.25 118.95-65.03 185.99-78.05zm115.04-51.86c.01.21.03.42.04.63l-15.21.87-.09-.67 15.27-.82zm-121.39 20.58c2.67 1.74-19.54 7.01-19.5 7.63-2.9-1.92 19.52-6.95 19.5-7.63zm-93.81 40.97h0 0zm-28.61-112.84l-.05-.05 39.01-19.52.55 1.15-39.51 18.42zm-14.73-42.55c-1.95-.79 14.73-9.26 14.62-9.67 3.59 1.6-14.65 8.87-14.62 9.67zm97.09 4.79l.57 1.16-40.75 16.41-.26-.61 40.44-16.96zm-59.21 5.97c-.06-.12-.11-.24-.17-.36l53.2-24.81c.06.12.11.24.17.36l-53.2 24.81zm82.32-68.53c1.52-1.02-81.93 38.93-47.47 21.52-2.33-3.24-8.49 1.3-11.86 3.13 1.99-2.86 47.13-21.39 59.33-24.65zm-64.61 27.25h0c-37.26 25.31-43.7 16.92 0 0zm-31.22 2.83c2.01.76-29.09 15.78-28.86 16.14-2.28-.88 29.1-15.73 28.86-16.14zM302.77 171.22c1.75.54-9.62 6.96-9.49 7.3-1.56-.27 9.69-7.07 9.49-7.3zm82.93-32.66c-1.29-.11 10.89-8.51 10.55-6.98l-10.55 6.98zm-58.25 23.71c-13.12 8.59-25.82 17.81-38.71 26.73-.73.55-1.66.76-2.55.59l12.92-9.32c46.12-36.62 36.59-24.36 88.55-58.47 4.19-2.6 8.67-4.74 12.99-7.13 1.62-.9 3.19-1.9 4.78-2.85l-8.23 5.64-69.76 44.82zm77.99-50.46h0l14.69-7.95.45.89-15.15 7.06zM379.36 258.4c-9.12 11.12-22.36 19.59-36.21 25.8 14.89-12.07 29.54-24.52 46.85-33.18-3.56 2.44-7.19 4.79-10.65 7.38zm29.73-17.31c-1.63-.76 15.85-9.74 15.86-10.06 2.76 1.14-16.01 9.48-15.86 10.06zm-40.9 20.27c19.9-18.44 44.15-30.11 67.72-42.88l-67.72 42.88zm71.88-26.83l-.34-.69 14.63-6.82-14.29 7.52zm33.99-27.85l-.15-.42 17.1-7.97.19.4-17.13 7.99z" fill="url(#C)"/><g fill="#da92fb"><path d="M83.35 72.1h-.43c-.15.54.53.64.43 0zm.01 28.22c3.76 10.88-10.88 14.05 7.48 15.75 10.85-16.08-9.56-1.54-1.87-15.33 18.79-15.71 6.38-13.34-5.61-.42zM60.97 76.35c-14.99-4.26-17.32.38-10.29 9.36 3.84-2.63 7.31-5.78 10.29-9.36zm11.23 35.99c1.93-3.54.91-4.59-1.87-6.98-9.03-5.54 2.17 17.48 1.87 6.98zm14.46 7.48c-7.4 4.81-2.92 9.84 4.18 6.04l-4.18-6.04zm-3.04-32.78c-1.11-1.02-2.99-1.43-4.01-.05-4.32 5.68-3.82-13.07-12.07-8.4-1.32-9.07 15.27-.32 10.27-17.23-5.13-2.63 1.52 3.43-11.66 8.42-6.47 18.3-.14 4.7 3.95 12.08-2.77-.19-6.02 2.69-7.76 4.69q5.61 1.87 7.92-2.3c5.04 2.39-1.42 11.31 1.43 11.66 2.73-5.23 4.3-.75 7.92-1.87 1.27-1.53 6.87-4.53 4.01-7.01zm-17.05 29.47c-3.02-1.68-6.01.57-4.89 3.87 1.66-1.3 4.46-1.03 4.89-3.87zm-1.43 5.19h-.84c5.36 4 9.66.63.84 0zm-3.31-13.54c-7.79-10.5-6.89 14.06-14.9-2.89 2.88-3.66.44-6.32-1.37-9.79 4.21-3.47 1.87-13.23-3.56-12.6-5.27 11.35 7.81 7.5-1.2 11.2-1.66 6.21 14.13 31.35 15.92 18.25 2.72.34 7.63-.86 5.11-4.18zM68 59.64l-6.82 3.54c3.29 2.36 4.52-1.94 6.82-3.54z"/><path d="M61.18 63.17zM69 59.16c-.36.09-.69.26-1 .47l1-.47z"/><path d="M69 59.16c.24-.06.48-.1.75-.09.29-.3-.06-.21-.75.09zm-3.35 35.83c-1.47-1.2-2.48-.25-2.81.94 1.44 1.96 2.31.77 2.81-.94zm-7.49 8.84c1.43-1.53 5.31-4.22 1.87-6.05-4.27-2.51-3.37 3.94-1.87 6.05zm35.72 32.88l-.66-1.48c-4.59-5.69-9.19-1.76.66 1.48zm56.85-63.39c-5.33-2.19-8.34 4.21-6.12 7.92-7.6 5.77 1.99 2.62 4.25 1.87 2.38 0 .43 1.87.43 3.24s6.04-4.18 6.04-8.42c-2.26-.92-5.57-1.32-4.61-4.61zm-49.6-27.42c-1.1.23-2.28.44-1.87 1.87 1.81-.07 2.65.57 1.87-1.87zm55.68 58.84c-.5-1.87-.94-1.87-1.44-3.74-25.26 6.96 5.88 9.58 1.44 3.74zm-39.77 21.2c-.65-.49-1.85-2.55-2.81-1.44.25.43 3.41 3.39 2.81 1.44zm8.42-18.26c-7.67-.79-8.15 5.73-18.21-1.87-3.84 2.6 8.93 7.15 1.87 10.71 3.45-1.08 11.92-9.14 12.6.96 5.35 3.48 8.92-7.53 3.74-9.79zm-19.22-47.82c3.45-2.94-1.76-3.44-4.6-4.61.63 2.29 1.54 6.64 4.6 4.61zm61.76 47.8h-1.37c-6.74 7.08 4.7 2.31 1.37 0zm-52.32-5.61c3.02.63 2.82-2.16 4.18-3.74 3.19-5.66-6-.08-4.18 3.74zm4.45-35.88c-13.98.81-11.28 24.92-7.49 13.03-.58-6.92 12.51-6.44 7.49-13.03zm21.92 47.18c-.3-.89-1.4-2.83-2.3-1.44-4.8 4.11.41 7.32 2.3 1.44zm-15.22-26.78c-2.87-3.04-3.99 2.84-4.61 4.61 3.56 1.97 8.78-2.59 4.61-4.61zm4.22 5.23c-3.61 13.59 2.66 11.81 8.86 2.3q-2.3-4.69-8.86-2.3zm2.11-21.16c-.71.18-2.87-.58-2.3.94-.6 3.77 3.2 1.71 2.3-.94zm-17.13 77.11h-.38c8.69 6.81 11.16-3.17.38 0zm44.05-52.33c1.87-.94 2.3-2.81.43-5.61-5.9 2.4-11.88 7.71-.43 5.61zm-38.36-61.19c1.7-3.53-1.46-.78-2.72-.4.93-.05 2.08 1.28 2.72.4zm-50.97 88.48c.51 1.45 4.61 6.46 5.61 4.18-1-3.98-1.23-7.55-5.61-4.18zm73.39-68.26c-1 .45-3.51.59-2.81 2.3 2.54 9.94 15.35.44 2.81-2.3zm16.87 13.48l5.11 2.81c.05-7.48-6.52-6.9-5.11-2.81zm-9.47-26.27c-.43-.43-1.8 0-2.3.94-3.65 7.5 11.74 2.18 2.3-.94zm-27.45 40.3c1.6.38.84-1.79 1.37-2.81-2.06-.68-1.18 1.71-1.37 2.81zm-11.73-41.68c-.9-3.55-3.46.17-3.67 1.94 1.79.06 3.23.47 3.67-1.94z"/><path d="M88.04 79.15c-.75.3-6.19-.93-4.68 1.37 1.03 2.36 6.07.92 4.68-1.37zm-.45-22.89c6.6 2.82 2.02 5.3-1.88 6.05-1.56 10.51 11.77-1.92 9.79-7.92-4.43-9.71-23.53 2.13-7.91 1.87zm22.97-5.69c.66-.29 3.39.07 2.73-1.37-.97.02-3.19-.38-2.73 1.37zM88.54 73.54c5.16 5.95 15.49-5.96 6.55-6.55l-6.55 6.55zm47.26-19.01c-6.13-10.78-15.94-6.49-6.05 3.74-3.79 11.02 7.82-.13 6.05-3.74zm-2.35-22.67c2.59.94 4.01-1.49 3.24-3.74-1.53-.28-5.8 2.83-3.24 3.74zm-20.59 31.81c4.13 1.05 4.1-5.72 0-4.68v4.68zm22.9-22.88c1.21-2.13-1.9-1.95-3.24-1.87-1.72 2.55 1.54 4.37 3.24 1.87zM248.9 73.03c.51 2.17 2.54 1.31 2.81-.43-1.31-.75-2.05-1.28-2.81.43zm10.7-66.12c-.43-.43-.43 0 0 0h0zm10.83 53.96c-.37 2.42 3.62 1.89 2.81-.43l-2.81.43zm-23.84-19.55c.99.96 2.08.18 2.3-.94-.72.04-4.01-.35-2.3.94z"/><path d="M260.97 6.91h-1.37c1 1.51 3.7 2.86 1.37 0zm28.35 39.22c2.88-7.74-2.69-7.12-5.47-1.08-.43 2.73 4.29 3.29 5.47 1.08zm-30.8-11.89c.74 1.36 2.15 1.25 1.8-.94-.8-.09-1.66-.03-1.8.94zm-28.99 26.08a2.33 2.33 0 0 0-.5 3.31c4.02 8.03 14.57-13.72.5-3.31zm31.53-7.8c-.76 2.81 3.27 4.39 5.11 1.37-1.21-1.23-4.33-5.15-5.11-1.37zm-66.76 7.23c.52-.51 3.43-1.72 2.81-2.81-2.67-1.26-5.18-.07-2.81 2.81z"/></g><path d="M266.18 53.89h-.01" fill="none" stroke="#da92fb" class="S T U"/><path d="M270.12 29.41c.97.05 4.41.21 3.67-1.37-.75-2.98-5.06.02-3.67 1.37zm-54.81 93.09c.55.18 4.93 2.24 5.11 1.44-.53-2.2-3.68-4.09-5.11-1.44zm.84-84.01c1.52-.98 2.7-3.92.5-4.68-5.31-3.82-3.72 3.7-.5 4.68zM202.09 6.16c.48-.69 6.33-2.67 4.65-4.13-.68.31-7.6 2.43-4.65 4.13zm50.36 58.34c-.65-.21-2.13.31-1.37.94.74-.12 3.62.38 1.37-.94zm-37.01 11.1c-.3 1.17-.24 2.29-.07 3.46 3.16-1.47 5.05-8.93.07-3.46zm-12.86 24.98c-1.01 1.96 1.97 2.57 3.24.93.92-3.16-1.42-1.74-3.24-.93zm4.36-13.43c1.47-3.5-1.8-6.9-5.11-4.68-.63 2.29 3.47 7.55 5.11 4.68zm.01-18.67l-1.37-.94c-.13 2.17 1.6 4.68 1.37.94zm-54.68 52.36c-.94 1.87-1.37 3.74-4.17 2.81-2.84-1.45-1.14 5.41-7.49 5.61-2.07-2.78-1.95-6.43-5.61-2.38-5.03 1.9-1.7 5.79-1.37 9.79 11.62 2.42 9.34-5.92 16.78-6.97 10.13 1.99 10.8-21.41 1.86-8.85zm62.35-101.57h-2.3c.09 2.37 3.25 1.78 2.3 0zm-18.98 109.82c3.3-4.19 14.31 1.59 12.09-5.54-4.07-6.31-16.5 5.36-12.09 5.54zM178.92 84.6l1.37-2.3c-5.5-6.57 4.71-6.04 2.38-11.23-6.38-6.66-17.03 19.58-3.74 13.53zm47.36-81.67c-2.04.37-4.16 2.37-2.09 4.25 3.1 2.48 4.39-3.91 2.09-4.25zm-7.12 54.36c-.46.49-6.59 1.89-5.62 3.24 2.07.8 9.54-.98 5.62-3.24zm11.39 17.1c-2.21.76-2.65.88-.93 2.81 3.18.59 3.62-1.25.93-2.81zm-1.04-47.71l1.44-2.73c-3.43-1.37-7.31 4.4-1.44 2.73zm41.34 19.65c-2.07 1.81-1.96 3.55.94 1.87l-.94-1.87zm-15.39 34.62c-2.81 1.22-.03 4.18 2.37 3.24 1.72-.53 0-4.28-2.37-3.24zM225.6 46.1l4.17-4.18c7.22-10.65-5.78-2.02-4.17 4.18zm-4.21 55.05c-2.91-.26-3.61 2.65.07 1.87-.07 0 .43-1.87-.07-1.87zm-7.04-50.81c-2.42-2.09-1.73-.56-1.44 1.44 1.02.34 1.21-.72 1.44-1.44zm29.88 45.59c-.77 2.75 2.35-.34 2.81-.94-1.01-1.67-1.97-.1-2.81.94zm-8.92-82.35c-1.01 4.3 5.01 3.55 5.11.43-1.5-1.07-3.46-1.23-5.11-.43zm67.63 2.77c.42 1.01.78 2.86 2.3 2.3.42-1.78-.63-2.65-2.3-2.3zm10.46 30.77c1.07-.43 2.86-.81 2.3-2.38-2.27-.27-2.52.18-2.3 2.38zm9.29-18.29c-.92-2.23-5.54.09-3.67 2.3 1.82-.16 4.29.89 3.67-2.3zM99.27 96.43c0-2.38-4.68 3.24-2.81 8.42 5.03-.72 1.75-3.77 2.81-8.42zm78.51-68.74v-.46c-.06.14-.07.31 0 .46zm4.25-20.59c.21-1.77-.09-2.07-1.87-1.87-1.19 1.44.51 3.39 1.87 1.87zm-4.94 12.03c-2.47-.11-4.29 1.87-1.88 4.17 2.11 1.23 3.44-2.87 1.88-4.17zm-7.2 101.05c1.33.44 1.89-.89 2.3-1.87-1.71-1.76-3.89.24-2.3 1.87zm9.97-80.9c1.27-1.73 2.62-4.3-.94-3.74-.63 1.48-.79 3.1.94 3.74zm7.7 70.26c-9.2 1.14 7.53-17.4-8.35-15.05 1.05 4 5.48 8.5 0 11.23 1.58 21.32 21.91-2.99 8.35 3.82zm-8.38 9.46c-.59 1.33.18 2.24 1.37 2.81-.03-1.23.07-3.2-1.37-2.81zm15.42-75c-12.59 9.94 11.67-.99 3.2-7.03-4.19-2.48-7.22.03-10.18 2.86 1.85 3.58 11.94-2.31 6.98 4.17zm-9.16 10.78c-.82-4.11-4.98-3.22-7.48-.94-5.58 6.91 5.61 1.14 7.48.94zm6.82 21.56c-.48 2.3 2.06 1.38 2.81 0h-2.81zm-87.91 10.62c-1.76 2.95 6.99 6.77 9.79 4.61-.07-3.78-5.83-9.29-9.79-4.61zm.1 28.62c-.19 2.14 3.59 1.17 4.68 1.37-1.35-.81-4.81-5.3-4.68-1.37zm-4.68-41.61l-5.61 6.55c4.11 2.04 10.44-3.26 5.61-6.55zm55.71 66.57c-1.47.45-1.85 3.28 0 3.74 1.7.21 1.78-3.38 0-3.74zm31.37-115.33v-.94c-3.2-2.32-6.03 2.12 0 .94zm-87.44 86.27a.89.89 0 0 0 .36.36c3.73-.57-1.31-4.97-.36-.36zm70.68-12.34l3.24-6.98c-3.74.82-7.5 7.51-3.24 6.98zM155 33.18c7.39-4.34 12.26 12.35 15.41.08-4.89-6.39-10.88-8.41-14.91-.53-3.78-8.04-7.13 1.57-.49.45zm9.95 14.43c-7.42-1.61-.51 8.52-.08 11.23 13.52 1.36-.57-5.63.08-11.23zm-9.45 104.72l4.67-2.3c-1.81-2.44-3.23.65-4.67 2.3zm10.17-13.85c5.62 8.24 20.57 2.48 10.22-7.48-1.2 4.92-10.69 2.88-10.22 7.48zm111.55-59.46c1.15-.09 2.83.48 2.3-1.37-1.15.09-2.83-.48-2.3 1.37zm32.58-7.06c-2.48-.33-1.9 1.91.07 2.3 1.04-.38 1.17-2.15-.07-2.3zm-12.98-16.28c-1.04 1.39.06 3.38 1.87 1.87.2-1.78-.08-2.07-1.87-1.87zM200.5 25.41c-.29.08-3 1.07-3.24.94 1.54.88 2.41 1.47 3.24-.94zm-84.82 105.57c.12-.23-11.68-13.18-12.09-6.55 13.68 9.66 10.24 12.09-4.25 10.73-1.37 6.94 11.31 11.54 14.47 4.24.96-6.01 14.1-2.61 1.87-8.42zM248.82 24.03c-.43-.43-.43-.94-.93-1.87-3.21.41-1.32 2.44.93 1.87zm-111.7 121.48c-3.42-2.32-15.07-5.08-6.11 2.74 4.93-.75-4.26 2-6.22 4.13 2.75 4.63 26.85-7.57 12.33-6.87zm54.65-131.05c1.38.36 1.51-1.27 1.37-2.3-1.4-.49-2.71 1.24-1.37 2.3zm-31.8-1.41c-2.89 1.8-8.17 2.29-4.15 6.58 3.17.87 7.79-4.32 4.15-6.58zm130.07 10.7c.03 1.31 1.92.88 2.73.94-.1-1.94-1.13-1.81-2.73-.94zm-15.88-7.47v2.3c2.12.59 2.15-2.64 0-2.3zm14.64 49.74l-2.38 3.74c3.1-.58 5.6-3.94 2.38-3.74z" fill="#da92fb"/><path d="M1970.55 400c-70.17-213.54-271.17-367.72-508.2-367.72S1024.33 186.46 954.16 400h1016.39z" fill="url(#D)"/><path d="M1512.36 325.11l132.85-260.73-11.24-3.96-244.26 183.35-48.43-197.72c-29.61 6.85-58.28 16.16-85.78 27.7l-41.56 159.5-119.46-54.34c-25.92 24.57-49.39 51.7-69.99 81.01l34.63 109.78-92.26-4.23c-4.61 11.33-8.87 22.83-12.72 34.53h753.09l108.22-88.87-303.11 13.99z" fill="#51bfeb"/><path d="m1699.45,87.55l-8.5.46,63.29,64.84-88.36,76.01,90.95-12.32-35.92,92.28,75.15-73.98,20.32,87.48,22.93-107.15,52.61,33.3c-50.31-67.72-116.24-123.15-192.49-160.92Z" fill="url(#E)"/><g class="V"><path d="M1366.7 393.09c3.19 4.13 8.85 1.05 12.98.65-4.11 0-9.6-3.15-12.98-.65zm8.22-25.31c1.21 2.87 6.39.96 8.22-.65 2.06-2.42-8.44-3.06-8.22.65zm8.64-82.25c-10.48-1.73-1.57.17-3.03 4.98 3.31 2 8.46-4.62 3.03-4.98zm2.83 87.87c-2.5-1.14-6.49 1.16-2.6 2.82 1.46.78 4.97-2.05 2.6-2.82zm22.5 14.93c-1.97.65-5.66-.1-5.84 2.38 1.23-.04 10.02.69 5.84-2.38zm-73.56-19.91c3.1 4.62 22.99 7.65 18.82 2.82-6.88 1.89-12.83-4.21-18.82-2.82zm106.62-39.19c2.16.43 3.68-2.6 6.06-2.16-.58-5.93-12.92-1.87-6.06 2.16zm-143.57 49.92c8.11-6.87 15.66 2.8 5.62-9.52-2.81 1.3-6.27.65-7.57 4.98-3.13 9.93-11.78-3.81-18.61.22-6.96 7.45 17.35 9.28 20.55 4.33zm161.35-47.29c-2.44 1.69 1.54 3.7 3.68 3.03 2.16-1.67-2.14-3.41-3.68-3.03zm-95.19 35.7c-9.05 7.09 2.21 4.89 6.92.43-2.81-1.3-4.76-2.81-6.92-.43zm63.47 2.93c-4.37.3 2.18 4.67 4.54 2.81-1.07-1.51-2.71-2.53-4.54-2.81zm-84.61-83.27c.79 2.84 4 2.64 6.27 1.73 2.02-1.98-5.04-3.99-6.27-1.73zm-25.96-23.8c-.54.48-.27 1.25.43 1.3 10.33 2.71 7.27-7.01-.43-1.3zm-7.36 32.02c3.47.09 3.25-3.46.44-4.11-2.67-.26-3.33 4.12-.44 4.11zm128.88 100.04c-2.05 3.93 5.28 2.19 4.98-.87-1.44-1.04-3.49.38-4.98.87zm-17.09-74.42c4.55-.11 4.32-6.79.22-6.27-2.67.44-3.77 6.17-.22 6.27zm33.75-26.91h5.19c12.24-3.52-16.98-5.67-5.19 0zm-30.94-14.84c1.82 3.18 5.8 2.54 9.74 1.3-3.66-.33-7.4-3.42-9.74-1.3zm5.62 17.72c-1.35 2.56 2.32 1.79 3.68 1.51-.62-1.74-2.24-3.1-3.68-1.51zm-6.94 40.97c-2.15 3.25-5.63 2.61-9.74 3.47 4.82 4.99 16.98-.41 9.74-3.47zm-47.79-106.54l7.79-.65c-3.46-.43-5.62-1.08-7.79.65zm33.84 49.44c-3.24-.43-6.71 0-9.52-2.16-.67 4.85 6.76 4.92 9.52 2.16zm-161.4 37.19c1.08-.43 3.03-.22 2.81-1.95-6.19-8.86 1.09-4.48 11.9-8.87 4.02-13.63-20.19 3.88-22.28 9.74-3.81.85-.59 5.44 2.16 6.06 3.03-.23 2.41-4.4 5.41-4.98zm82.56 59.21l8.44 3.24c9.66-1.16-4.71-8.99-8.44-3.24zm9.92-176.45c6.37-2.49-1.79-4.77-5.84-3.25 1.83 1.27 3.79 2.36 5.84 3.25zm-98.75 15.56a5.81 5.81 0 0 0 4.98-3.03c-5.17-1.87-14.54.8-4.98 3.03zm108.94-51.36c3.2.28.35-3.84-1.51-3.46-1.45 1.36.28 2.69 1.51 3.46zm-29.59 24.62h0c-7.99 5.64 10.65 4.06 0 0zm-29.08 121.09l9.52 1.95c-7.47-13.47-18.12-10.58-9.52-1.95zm191.3 22.63c-1.08-4.11-1.95-1.09-3.25-.22-9.98 9.53 19.19 10.91 3.25.22zm-143.89-116.85c-.51.32-.77.92-.65 1.51 4.56 7.86 10.41-4.12.65-1.51zm25.33 28.55c3.45-.6 8.28-.49 9.95-3.89-.15-4.39-13.28 1.47-9.95 3.89zm-1.52 16.24c.16.02.32.1.43.22.51.45.13-.48-.43-.22zm-41.99 20.6c2.6 1.52 4.98.65 8.44-.65-2.79-1.5-10.04-2.87-8.44.65zm45.03 47.77c.31 2.01 4.33 4.66 4.98 1.73-.23-2.12-4.37-5.12-4.98-1.73zm-74.12-126.16c.26-3.37-8.86-.65-9.09 2.16 2.61 1.35 8.42 1.59 9.09-2.16zm17.45 146.95c1.46 2.12 6.86-.81 5.17-2.62-1.28-.7-5.26 1.13-5.17 2.62zm-8.08-98.18c-3.89 0-6.06-3.89-9.74-1.73q4.54 2.6 9.74 1.73zm1.62-157.25c2.89-2.09-5.02-4.75-3.24-.86.74 1.01 2.09 1.37 3.24.86zm20.01 264.18c3.17-.17 7.91 4.65 8.87 0 1.82-6.2-6.51-2.89-8.87 0zm16.93 2.48c.83.76 2.54.76 3.25-.22 1.24-3.12-6.25-1.94-3.25.22zm-51.13-4.05c-2.07-1.27-2.36 2.44-2.81 3.9 2.83 2.34 5.88-1.83 2.81-3.9zm-40.4-113.89c-.4-4.11-5.97-4.91-9.09-1.3 3.22.36 6.77 3.44 9.09 1.3zm78.13-128.47c-1.37-1.65-5.08-2.11-6.49 0 2.16.22 4.33 1.3 6.49 0zm11.24 134.98c-.84-3.48-7.56-8.16-10.16-6.28-.76 2.83 8.35 8.14 10.16 6.28zm-38.49-84.69c7.89-1.92-13.09-9.23-4.98-.22 1.19.52 3.69.09 4.98.22zm.62-36.91c-2.18 1.01-4.66 3.76-7.36 4.54 1.91 2.62 9.77-.87 7.36-4.54zm17.34 85.29c2.69 3.05 9.35-1.76 4.98-3.46-1.6 1.07-8.7 1.84-4.98 3.46zm-71.4 148.61c1.18-.29 2.36-.74 3.46-1.3 5.23-5.32-7.11-2.42-3.46 1.3zm-4.04 14.33c.97 1.36 3.01 3.46 4.11.87-.29-2.45-2.58-3.43-4.11-.87zm23.1-39.31c1.43-4.72-6.51-5.69-9.52-4.76-14.67-.07-2.96 17.4 1.08 5.63 1.3-5.7 5.44-.33 8.44-.86zM1225 354.15c3.23-2.1-11.83-4.82-11.9-.87 2.35 1.98 8.29 1.61 11.9.87zm15.13 34.5c.12 4.5 5.11 2.23 3.25-1.29-.56-1.63-3.5-.3-3.25 1.29zm118.55-262.76c1.95.23 2.4-.01 1.68-1.9-.41.72-4.08 1.25-1.68 1.9zm88.03 223.37c-4.58-2.25-2.48 4.74-.65 6.49 2.45-1.08 3.73-5.67.65-6.49zm-68.41-152c-2.98-1.23-4.74 2.71-7.06 4.36 5-.37 10 2.45 7.06-4.36zm147.94 153.71l-5.84-3.89c-14.72 2.59 8.65 12.86 5.84 3.89zm-8.96 32.39l-.22-.22c0 .12.1.22.22.22zm4.39 4.56l5.84.21c5.53-3.95-10.67-5.55-5.84-.21zm20.49-23.6c-3.58 1.75-6.1-3.79-7.14 1.08-.62 3.26 8.55 2.46 7.14-1.08zm26.88 4.75c-5.34-16.48-10.79 17.41 1.3 4.54 2.17-2.38-.44-3.03-1.3-4.54zm-30.57 21.22c2.11 3.64 11.12 1.96 9.74-2.16-2.05-4.61-6.88.93-9.74 2.16zm-6.27-63.19c-3.26.57.75 5.8 2.16 5.84 2.77-.77.61-8.15-2.16-5.84zm-33.53-27.04c-2.36-2.25-6.41.67-6.49 3.03.57 2.93 6.9-.75 6.49-3.03zm14.71 76.59c-2.06-1.79-3.88-3.63-6.27-5.19 1.08 2.81 2.16 5.62 6.27 5.19zm-128.83-71.55c-5.84-3.68-11.47-2.81-17.96-3.03 5.84 4.98 11.25 5.19 17.96 3.03zm116.72 54.91c.94 2.26 4.39 4.31 6.27 2.38-.04-3.35-3.94-3.9-6.27-2.38zm-1.52-51.94c-1.73 4.33-2.6 8.65-1.51 13.41 8.65-5.63 8.01-7.79 1.51-13.41zm41.76 18.61c2.24-1.35 5.65.62 6.71-1.74-1.31-3.27-13.18-.31-6.71 1.74zm-278.73 28.24c-.1 3.19 2.67 4.36 5.84 3.03-1.76-.87-4.33-5.21-5.84-3.03zm58.27 20.86c-.79.57-.63 2.25-1.3 2.38 9.3 1.77 12.5-.44 1.3-2.38zm8.78 1.47c-.08-.05-.01.02.3.26.37-.08.26-.42-.3-.26zm6.32-43.75c-2.04-4-14.53 1.04-13.63-5.85.81-2.43-11.75 1.66-15.14 1.29 5.51 5.35 30.86 6.09 13.63 8.88 1.92 7.34 13.83-1.08 15.15-4.33zm-63.39 39.66c-.43-1.95-2.38-3.68-3.89-3.68-4.94 1.93 3.16 8.13 3.89 3.68zm39.66-7.87c1.01 1.59 4.91.58 5.41-1.08-1.33-.21-6.05-1.26-5.41 1.08zm141.9 4.22c-4.12 1.55-1.96 6.42 1.95 4.11.65-1.08-.87-3.9-1.95-4.11zm27.11 7.53c-3.78 2.05 2.74 4.34 5.62 2.6-2.16-1.51-3.46-2.81-5.62-2.6zm-29.71-65.73c1.82.92 8.04.13 4.98-2.82-2.07-1.6-7.68.06-4.98 2.82zm-61.22 3.89c1.51 3.92 3.31 3.43 4.11-.65-.36-2.15-5-1.72-4.11.65zm7.23 57.15c-1.52 2.16 4.97 1.08 1.3 3.9 1.43 5.7 6.2-4.18 9.52-.86 10.39-4.11-7.45-3.95-10.82-3.03zm-30.87-18.94c6.41.6 11.71 6.86 17.96 4.32-.17-7.1-30.34-9.11-17.96-4.32zm-134.33-69.23c7.08-3.83 10 2.89 15.07 3.59 4.75-15.08-37.59-10.55-15.07-3.59zm118.49-67.91c-3.14 13.49 33.67 4.83 15.15 1.08-2.9 2.46-6.51-2.5-8.66 1.31-2.94 4.13-4.03-8.47-6.49-2.38zm-13.53 21.69c-.1-2.76-3.67-2-5.41-1.3-6.34 2.2 4.18 5.29 5.41 1.3zm-2.6-87.4c1.53.78 3.17-3.15.65-3.46-1.52-.04-2.11 2.7-.65 3.46zm-22.96 236.06c-5.44.38-14.4-3.14-18.61 2.6.95.9 27.2 1.3 18.61-2.6zm-15.33-43.29c-.34-1.92-3.32-4.05-4.11-1.52.02 1.68 4.19 4.14 4.11 1.52zm46.09 48.25l-5.25 8.42c11.44-.46 21.66 2.83 5.25-8.42zm223.84-47.76c2.04 1.27 4.28 6.7 6.8 4.83 6.44-7.3-1.74-4.72-6.8-4.83zm26.86 18.51c-3.72-3.95-6.77 3.73-2.16 5.62 3.63 2.15 3.68-3.66 2.16-5.62zm-112.57-4.02c-4.11 0-6.27.86-13.2 4.98 3.82 3.04 26.68-3 13.2-4.98zm-125.3-91.86c1.04 2.22 2.91 11.23 5.84 7.58 3.33-4.96-2.67-13.65-5.84-7.58zm126.93 16.08c-.38-3.31-4.99-3.39-8-1.95 3.02.7 5.93 3.87 8 1.95zm-110.49-5.91c-.53-.87-6.7-1.17-5.19.87.99 2.66 5.69 1.94 5.19-.87zm-22.48 31.47c4.78 2.12 11.11-7.75 3.47-5.84-8.46-6.58-17 13.27-9.09 12.98 5.75-1.8.13-8.45 5.63-7.14zm119.55 17.72c-1.3-.22-2.6 0-3.25 1.3-1.11 4.45 6.6.17 3.25-1.3zm-125.2-59.36c-1.1-1.24-2.92-7.33-4.54-4.76.08 2.54 2.6 6.36 4.54 4.76zm116.76-40.6c5.71-1.69-15.8-5.37-17.96-4.98 6.02 2.07 10.87 8.61 17.96 4.98zm-165.7 99.93c-4.29.59-4.53-5.04-7.79-3.89-1.99 1.54-6.52 2.18-5.84 5.19 1.04 4.21 16.13 3.12 13.63-1.3zm54.5 41.13c2.38-.86 3.03-2.38 1.73-4.54-2.04-7.92-6.78 5.51-1.73 4.54zm127.22-73.35c2.45 2.43 8.95 5.09 6.92-.87-1.59-1.95-7.15-2.28-6.92.87zm-97.58-32.66c-3.59-2.94-10.33-1.56-5.41 3.03.83-.72 6.17.02 5.41-3.03zm-37.13 82.83c-4.91 6.65 6.96 4.94 10.82 4.98-1.43-4.75-7.31-3.52-10.82-4.98zm-10.93-28.25c.59-5.67-4.81 1.47-5.62 3.24 2.38.87 3.89-1.3 5.62-3.24zm-60.82-39.43c-2.45 1.87 1.25 10.14 3.03 10.82 1.67-2.24-2.19-7.88 3.9-7.36 13.84 1.36-1.5-5.76-6.92-3.47zm130.24-16.21c1.93-.57 3.33-.86 5.62-.87 5.49-4.6-11.92-3.69-5.62.87zm-20.5-11.92c8.64-1.46-6.06-9.59-.01 0-6.36 6.02 6.86 6.88 10.83 4.75-3.68-2.28-9.41.14-10.81-4.75zm-33.63 80.44c-.71 2.99 5.33 3.16 6.27.65 16.56-4.28-8.84-7.59-6.27-.65zm60.11 21.89c-4.4-11.55-9.52-6.12-17.74-1.3 8.44 2.38 8.87 2.38 17.74 1.3zm-1.74-48.22c2.65 1.16 6.78 5.66 9.09 2.16 8.39-7.3-12.35-8.49-9.09-2.16zm71.77-55.67c1.08-1.6-.32-3.31-2-3.43-4.97.78-.76 6.52 2 3.43zm-74.76 79.14a13.08 13.08 0 0 0-11.25 2.16c4.33 1.73 8 1.51 11.25-2.16zm61.97-59.43c-1.95 0-3.89-.43-6.27.87 1.67.96 10.3 2.15 6.27-.87zm63.84 13.22c-11.08-2.26-5.23 5.59 1.51 1.73.22-1.08-.65-1.51-1.51-1.73zm-13.82 23.75c-.1.01-.18.03-.25.05l.25-.05z"/><path d="M1522.9 300.93c-2.23-1-4.92 1.23-9.27 2.11 2.04-.29 10.28 1.47 9.27-2.11zm-95.16-65.79c2.34 2.19 7.33.6 3.46-2.16-1.89-1.5-7.14.37-3.46 2.16zm-121.92 120.59c-2.64-2.83-4.64 2.14-6.06 3.68 1.44 2.32 5.21-1.79 6.06-3.68zm-170.98-5.63c.84 5.2 11.33 6.02 9.3 0-2.28-2.14-8.64-4.45-9.3 0zm22.07 3.49c-.38 1.83-4.84 4.7-1.73 5.62 3.25-.42 1.59-3.33 1.73-5.62zm-3.56-9.27c2.72-3.55-6.8-1.02-6.49.65 1.66 2.26 4.45 1.8 6.49-.65zm15.62-13.12c2.15 6.36 13.91-1.69 5.63-3.9-2.04.71-6.13.67-5.63 3.9zm-15.96-8.68c-1.91-.69-16.57 2.37-12.77 4.76 4.97 4.21 10.74-5.43 14.06 1.74 3.89 7.28 6.13-8.37-1.3-6.49zm22.89 19.22c-6.71 5.51 9.26 5.26 2.81-1.08-1.51-1.95-1.95.22-2.81 1.08zm-11.28 36.21c2.61.74 5.63-5.57 1.3-5.63-4.59-2.52-3.78 4.27-1.3 5.63zm-8.97 5.26c-25.9-12.77-8.27 5.82-3.03 1.95.86-.43 1.51-1.08 3.03-1.95zm-21.81-39.89c-3.45-1.62-8.09-5.34-10.82-2.16.99 3.41 6.88 3.32 10.82 2.16zm12.18 26.83c2.19 2.46 5.86.64 8.65.44-3.44-.89-8.65-4.05-8.65-.44zm-54.14-150.81c-.61-3.2-8.16-1.36-5.62 1.08 1.98 1.15 4.72 1.54 5.62-1.08zm79.23 134.51c.07 4.14-7.57 9.3 2.17 6.71 5.96-2.18-1.89-7.39-2.17-6.71zm-116.4 45.73c-.19.13-.37.28-.55.42 3.28.73 5.22-1.53.55-.42zM1167 292.05c-1.51 1.14-1 3.9 1.08 4.11 3.37.4 1.03-4.89-1.08-4.11zM979.18 400h14.57c-5.53-1.81-10.71-2.96-14.97-7.13-5.51-1.36.33 4.83.4 7.13zm94.36-2.16c.87-5.82-3.55-.89-5.84-3.03-1.51-1.51-2.6-1.08-3.89.65-12.89 6.93 29.17 5.81 9.74 2.38zm62.74-1.07c-6.75-3.74-5.6-4.87-7.85 3.23 1.7-.57 15.23 1.83 7.85-3.23zm-38.85-52.54c-13.02.27-1.82 3.07 4.76 2.16 3.83-3.14-8.36-6.91-4.76-2.16zm-.18-23.93c.61.76 4.54.49 4.33-1.46-.95-1.88-4.96-.82-4.33 1.46zm-90.29 47.01c-.95.31-10.08-1.7-6.78 1.8 2.21.49 5.12-.2 6.78-1.8zm61.34-6.43c2.6-.54 1.57-3.54-1.09-3.25-2.19.93-1.47 3.41 1.09 3.25zm68.49-27.57c0-2.32-3.67-3.86-3.46-.65-1.08 2.59 3.92 3.47 3.46.65zm-47.97-14.3c-2.59-.59-2.92 3.19-.22 2.81 3.54.48 4.25-4.02.22-2.81zm-2.1 35.56c-1.57-.67-2.93-2.76-4.76-2.16-1.14 1.5 3.28 3.44 4.76 2.16zm-.72-56.77q0-.21.22-.21c.08-.45-.84-.2-.22.21zm82.73 100.48c4.54-1.3 9.95-.65 11.9-6.49q-8.65-1.08-11.9 6.49zm-211.8-6.51c-5.56 10.45 10.78 6.55 16.67 5.87-5.83-1.62-12.44-.52-16.67-5.87z"/><path d="M964.72 387.25c.44 3.29 10.92.55 14.06.87-1.2-3.1-6.23-1.61-5.84-5.63-1.3 1.3-1.73 3.25-4.11 3.25h0c-1.51 0-3.25 0-4.11 1.51zm131.5-28.31c-.87-.43-1.08-.86-.43-1.51 3.09-3.58-3.85-1.94-4.98 0-3.52 4.39 9.02 4.89 5.41 1.51zm30.77 3.21c3.72 5.91 13.66 6.27 16.01 1.3-2.72-6.17-10.96.12-16.01-1.3zm-15.87 9.81c1.37-8.19-13.81-2-6.49 1.08-2.97 1.97-7.07-1.12-9.95 1.51 5.17 2.86 14.45 6.17 16.44-2.59zm9.79-7c-3.78 1.78 2.37 4.21 4.11 2.38 2.28-2.75-2.51-2.4-4.11-2.38zm11.7-74.2l-.22.22c.22.04.71-.04.22-.22zm4.75-47.24c-4.63.36-9.4 1.13-13.85.43-.02 6.39 11.49 4.43 13.85-.43zm129.82 66.92c4.98-1.08 4.98-1.3 8.22-4.11-5.29-4.81-6.51-.43-8.22 4.11zm-.73-84.52c.42 0 1.08-.65 1.3-1.08.12-5.14-8.33.38-1.3 1.08zm2.68-62.88c2.16-1.51 4.98-1.51 8.87-2.38-3.88-1.36-13.55-.21-8.87 2.38zm19.23 118.84c1.61.6 3.38.59 4.94-.17 2.69-3.42-8.62-3.44-4.94.17zm-10.38 103.42c-2.17 1.2-6.55 1.13-7.14 3.89 1.89 4.11 16.78-6.46 7.14-3.89zm9.1-48.24c-2.81 1.28-1.52 4.98-3.89 6.92 1.81 8.64 10.99-2.61 3.89-6.92zm-9.74-98.23c2.44.81 2.81-2.94.22-2.38-2.15-.31-2.34 2.06-.22 2.38zm-70.74 67.59c4.69 2.89 1.6-12.27-1.08-6.49.72 2.16-.42 4.64 1.08 6.49zm103.55-78.23c-1.09-2.96-.69-7.35-4.11-8.65-7.2 2.52-5.16 12.48 4.11 8.65zm-43.91-35.24c5.1-2.54-4.19-4.82-2.38-.87a2.06 2.06 0 0 0 2.38.87zm-8.59 174.4c-2.84-1.07-4.64 2.74-2.38 4.54 2.63 1.25 6.23-3.18 2.38-4.54zm16.66-53.01c-.94-.33-1.97.16-2.3 1.1-.87 5.83 7.46 1.23 2.3-1.1zm-24.87 81.57c-12.67 6.36 2.56 4.07 7.57 3.25 1.93-2.57-5.29-4.06-7.57-3.25zm-32.25-161.62c2.06-.82 1.86-6.69-1.08-6.06-2.56.68-1.66 5.64 1.08 6.06zm38.52 149.18c-3.48.86 4.13 3.32 5.62.86-.7-2.4-4.03-1.31-5.62-.86zm-31.37 14.81c-1.25.41-6.35.19-4.08 1.72 1.08-.12 10.29.67 4.08-1.72zm79.83 1.3c-.2.12-.37.27-.54.42 1.48.47 3.11-.93.54-.42zm-120.29.42c2.72-.26 16.79 1.68 10.16-4.96-4.12-6.43-7.86.04-10.16 4.96zm-19.47-3.23c-3.95 0-16.22-9.98-12.98.65-.12 3.61 24.77 5.2 12.98-.65zm53.68-148.87c2.3 2.81 4.65.44 2.38-2.16-.8-3.46-5.05-.16-2.38 2.16zm-1.75-2.14c-1.71.06-5.99.1-4.33 2.81 1.68 1.48 4.71-.68 4.33-2.81zm.64 37.42c2.12-1.57-1.79-4.73-3.46-3.03-3.39 2.34-.08 4.52 3.46 3.03zm-9.92 99.76c1.31-.11 4.8.61 4.11-1.73-2.38-5.37-13.67 2.38-4.11 1.73zm-9.09.18h0c2.42-9.18-12.8 2.96 0 0zm-8.54-25.04c.43-7.08 3.9 3.05 5.63-1.3 2.08-12.79 10.34-6.88-8.22-12.33-1.28 1.72.55 5.46 2.73 5.44-3.19 1.62-5.25 10.69-.14 8.19zm17.37-44.82c2.46.56 2.53-2.85 0-3.03-1.86.61-2.26 2.97 0 3.03zm2.6 48.67c2.55-3.55-3.06-6.7-3.46-2.16.25.99 2.12 2.63 3.46 2.16zM1175.48 378c-10.02 2.4-.56 5.47 1.48.38 5.11.39 18.48-5.92 8.22-8.65-5.19-.24-10.64 2.65-9.7 8.27zm64.66-113.42c2.21 1.33 7.28-.79 4.54-2.81-1.92-1.43-7.09 1.06-4.54 2.81zm-1.94 76.8h-6.71c4.11 3.68 4.33 3.68 6.71 0zm-17.54 44.69c-1.3-1.51-1.73.43-2.6 1.3-6.85 5.54 20.81.22 2.6-1.3zm19.47-86.89c.97-4.25-7.43-3.12-10.17-3.25-.69 5.1 7.19 6.14 10.17 3.25zm18.92-9.79c3.7-.8-5.4-8.92-5.41-4.54.21 2.81 1.73 4.11 5.41 4.54zm-12.19-124.52c4.97.53-.08-5.19-2.38-2.38-.22 1.51 1.08 2.16 2.38 2.38zm-17.33 151.85c-.06 1.96 2.41 2.57 3.9 1.73-.71-1.26-2.6-3.38-3.9-1.73zm-2.82 36.34c2.53-.12 6.15 3.87 8.44 1.51-.83-4.05-5.41-4.48-8.44-1.51zm-11.66-4.77c1.39-.1 7.75.78 4.98-2.38-1.72-1.63-2.71.9-4.98 2.38zm18.38 18.84c-1.24-1.09-4.58-.58-3.25 1.3 1.61 1.14 6.22.6 3.25-1.3zm30.68-104.22c11.74 1.14 6.07-1.92-.65-6.06-1.34-1.52-6.29 7.68.65 6.06zm-37.38 89.95a.93.93 0 0 1-.46.21c.21 0 .47.02.46-.21z"/><path d="M1226.27 353.07h-.19c.06.01.12 0 .19 0zm1.89-26.41c1.31.94 4.8 1.66 5.06-.64-.45-2.55-5.98-1.76-5.06.64zm-187.93 67.08c1.33 1.64 9.34 3.94 7.79 0-1.51-2.24-7.04-2.84-7.79 0zm-27.97-4.5c-1.17 1.52 3.63 2.78 4.76 3.68 6.81-.78-2.49-9-4.76-3.68zm118.18 2.99c.05.16.19.25.22.43-.03-.17.1-.54-.22-.43zm-131.54 1.94c13.92-.25 7.46-2.51-1.51-1.73.43.86 1.08 1.73 1.51 1.73zm-3.6 5.83h6.3c-2.19-.4-5.03-4.64-6.3 0zm15.72-.42c-2.08-3.4-4.37-.28-6.62.38 1.04-.09 8.33.52 6.62-.38z"/><path d="M1004.27 400l.12-.04c-.09 0-.14.02-.12.04zm52.39-11.46c-1.08 1.51-1.95 3.25-3.03 4.76 5.96.67 8.18-4.46 3.03-4.76z"/></g><path d="m1056.91,388.47s-.03.05-.03.08" fill="none" stroke="#75aefd" class="S T U"/><path d="m1130.66,392.66l-.08-.16s-.03.05.08.16Z" class="V"/><path d="M1057.1 388.33l-.08.03" fill="none" stroke="#75aefd" class="S T U"/><g class="V"><path d="M1025.73 398.07c-7.46 1.23 5.16 2.65 6.51 1.93-1.61-2.18-4.33-1.33-6.51-1.93zm78.6-8.31c6.92-2.6 4.54 3.89 6.92 6.06 1.58-3.34.16-6.35.87-9.74-3.02 1.71-5.21.21-7.79 3.68zm23.98-112.34c-1.02-3.58-8.23 1.3-11.33-1.52-15.32-3.19-3.14 11.43 11.33 1.52zm-142.88 107.7c6.92 10.85 16.09-6.03 0 0h0z"/><path d="M985.4 385.13s.02 0 .03-.01c0-.02-.02-.03-.03-.04v.05z"/><path d="M985.4 385.13l-.43.16c.16-.03.46.07.43-.16zm212.11-19.09c-6.41-1.78 2.87 7.43 7.14 4.11-1.3-3.67-5.62-1.08-7.14-4.11zm-42.36-103.32c-3.04 2.61 2.42 3.73 3.68 2.16.43-1.73.86-3.25 3.03-2.81 3.38 1.42 3.47-2.78.22-2.6-5.38-.68 3.52-12.57-6.92-8.44-4.35.63 5.47 7.92 0 11.68zm9.48 134.05q-.22-.22-.22-.43c.03.17-.1.54.22.43z"/><path d="M1168.1 390.93c-2.45-1.32-5.73 2.79-3.89 5.41 1.83-1.4 8.2-2.94 3.89-5.41zm36.76 5.41c1.63-.97 7.64-1.09 5.84-3.68-2.32-1.34-10.34 1.37-5.84 3.68zm-8.88-135.22c0 .12-.09.21-.21.21.25-.04.6.11.21-.21zm5.76 77.43c1.3.65 4.54-2.6 4.54-4.11-3.51-4.78-7.77.87-4.54 4.11zm14.21-64.03c.65-.43.43-2.6-.22-3.46-6.2-4.29-4.64 4.24.22 3.46zm-12.17 16.23c-3.46-1.95-5.62-.86-7.79.87-4.21 3.26 5.41.25 7.79-.87zm-12.84 29.36c3.24 2.6 3.24 2.81 4.54 2.6 5.69-3.95-1.01-5.54-4.54-2.6zm-59.99 64.65c7.05-2.55-4.54-6.45-5.2-1.73-2.83 2.6-2.33-2.36-5.62-1.73-4.99 1.42.33 2.36 1.95 3.68-7.17 4.74 8.42 9.99 4.76 1.51-2.49-5.09.74-3.2 4.11-1.72zm60.76-104.67c2.32-1.75-1.55-7.93-4.11-5.63-1.43 1.67 1.96 6.98 4.11 5.63zm.59-11.18a.22.22 0 0 1-.22-.21c-.06.2.13.6.22.21zm34.9 63.1c-2.46-6.83-14.42.87-17.3-10.82-13.34 4.76 10.89 12.02 17.3 10.82zm-137.63 35.24c-2.51-.09-6.77 1.1-3.24 3.47 2.56 3.58 17.72-5.44 3.24-3.47zm86.4-53.9c2.31 3.71 3.85-4.4 1.08-4.11-1.88.1-.7 2.86-1.08 4.11zm-123.72 19.94a.22.22 0 0 1-.21.22c.25-.04.6.11.21-.22zm18.76-4.62c.28 3.26 4.33 8.8 6.92 8.87 10.06-4.92-1.41-8.68-6.92-8.87zm-6.86-22.43c-1.11-.67-4.2 1.33-4.33 2.38 1.66 2.1 7.45.39 4.33-2.38zm-6.21 17.12c-.05 2.85 4.16 4.01 5.78 1.7-.8-1.55-4.59-4.02-5.78-1.7zm.37 12.74c3.84-2.63-4.15-2.3-5.84-2.38 1.51 1.95 3.89 1.51 5.84 2.38zm-3.03-31.59c2.72 1.99 5.52-.86 1.73-1.95-1.7-3.9-5.38.15-1.73 1.95zm28.13-22.5c3.17-.97-.91-3.28-2.38-3.68-4.61-1.26-.74 5.5 2.38 3.68zm1.63 24.27c-1.98-1.84-3.94-3.78-8.32-4.23 1.42 4.41 8.24 12.22 8.32 4.23zm-17.18-39.59c3.25 1.95 6.92 4.33 10.6 6.06 20.53 7.15-10.94-14.3-10.6-6.06zm-16.91 52.1q-1.51-4.32-3.89-3.9c-10.15 1.21-1.77 5.19 3.89 3.9zm19.15-71.5c3.68 3.89 7.79 3.89 11.9 4.33 5.26-4.18-8.43-3.22-11.9-4.33zm-96.95 135.2c-.04-.25.12-.62-.22-.22.04.25-.12.62.22.22zm14.29-10.82c2.42 6.45 9.85-1.25 7.02-4.94-5.48-.2-7.81-1.8-7.02 4.94zm-21.41 9.96c-8.79-7.65 6.56-7.09 7.57.43 5.73-10.13 10.08-3.19 7.14-12.33 3.58-3.72-3.7-2.87-5.19-.65-.02 1.99 2.18 6.58-1.73 5.62-8.91-7.65-19.38 10.84-7.79 6.92zm-6.5 6.06a9.98 9.98 0 0 1-.73-1.17c-.48 1.19-.72 1.64.73 1.17zm68.96-7.63c1.18 2.95 13.09.18 13.18 3.31-4.4 9.08 6.02 4.63 6.27-1.51 1.52-1.73 5.19 0 6.49-3.03-1.94-3.07-34.54-14.4-27.4-3.39 3.45-7.67 7.27 4.56 1.46 4.62zm48.57-12.54c-1.88-3.19-9.66.11-6.49 3.03 2.74 1.74 8.11 1.01 6.49-3.03zm20.53 24.31c-15.78-2.65-2.79 13.31 1.95 3.68.65-1.29-.43-3.68-1.95-3.68zm-98.11-8.46c11.8-2.19 38.84 2.25 14.87-7.5-2.04.85.04 5.39-2.32 3.83-3.09-2.59-17.07.56-12.55 3.68zm157.22-71.42c-5.13-.92-13.96-5.26-18.17-4.33-1.56 7.41 23.96 12.34 18.17 4.33zm-84.08 73.7c7.8-.02-4.55-8.62-7.14-4.98-1.85 3.47 3.71 6 7.14 4.98zm72.08-90.93c-.86.43-1.95.65-2.6 1.08.65 6.11 14.5 1.39 2.6-1.08zm77.26 78.03c-1.93-6.62-10.99-2.19-2.81.43 1.26.59 2.02 1.2 2.81-.43zm-110.21-41.2c-1.93.21-7.99-.48-6.06 2.6 1.83 1.12 9.02.49 6.06-2.6zm64.2-88.8c-3.68-3.68-8-2.81-12.33-2.6 1.75 3.96 9.28 6.74 12.33 2.6zm-64.85 106.88c-.08 2.17 2.7 2.2 3.89.96.6-1.98-3.67-3.6-3.89-.96zm-13.77-49.04c.48-3.28-3.06-8.8-5.64-3.46-.92 2.62 5.54 3.95 5.64 3.46zm-37.09 44.92c-2.23.58.41 2.59-.22 4.11 2.74 3.02 3.32-4.81.22-4.11zm36.47 41.2c-3.03-1.52-5.84-.65-8-2.6-5.58 3.36 4.52 4.59 8 2.6zm22.39-84.59c-15.41-4.6-13.56 7.07 0 0h0z"/><path d="M1119.1 302.12h0 0 0zm5.07 8.76c-1.53.95-1.2 5.76 1.51 5.84 2.11-1.38 1.42-6.08-1.51-5.84z"/></g><path d="M2922 110.99c-8.38-20.53-21.07-37.91-38.24-50.85-77.65-58.51-216.98-4.57-311.18 120.46-9.12 12.1-17.23 24.46-24.83 36.9-7.15-12.69-14.84-25.34-23.54-37.75-89.81-128.23-227.16-186.97-306.79-131.2-79.65 55.77-71.41 204.93 18.39 333.17 4.42 6.31 8.98 12.37 13.64 18.28h598.48l5.86-7.53c32.5-43.14 55.37-89.1 68.21-133.21V110.99z" fill="url(#F)"/><g fill="#4dcfa7"><path d="M2699.47 391.81c.23 2.24 1.89 1.64 3.16.34-1.01-1.28-2.4-2.59-3.16-.34zm95.46-109.98c-3.84-2.24-8.06-10.96-12-9.04 2.24 5.16 4.93 18.81 12 9.04zm-94.03 94.07c.88 3.26 2.6 6.24 4.98 8.64 4.77-7.53 7.2-13.36-4.98-8.64zm66.98-19.8l-8.71-1.17c2.31 4.56 4.95 4.54 8.71 1.17zm-79.93-85.58c-.74 2.22-2.35 4.7 2.75 7.11-.93-3.3.43-8.88-2.75-7.11zm15.6 31.29l14.59 3.92c-5.81-5.82-7.65-15.53-14.59-3.92zm.97 49.71c1.55 1.48 4.42 6.79 6.32 4.14-1.92-2.51-9.38-20.11-6.32-4.14zm-22.99-77.48c-.28-2.8.5-5.71-3.17-4 .92 1.37.93 5.15 3.17 4zm1.49 60c4.47.87 9.49 3.44 7.41-3.49-.62.62-8.91 1.46-7.41 3.49zm104.26-110.77l-2.06 5.6c6.6 1.93 7.37-3.66 2.06-5.6zm5.83 89.32v10.96l7.18-6.81c-1.53-.92-5.14-7.58-7.18-4.15zm-1.32-108.41l6.93-.72c-2.57-2.13-4.49-3.73-6.93.72zm25.38 78.34l4.37-5.55c-3.97-5.39-10.25 3.43-4.37 5.55zm-124.27 21.11h-8.96c1.51 3.61 4.5 3.61 8.96 0zm109.58-93.16c-.72.77-7.18 1.86-4.96 3.84.86-.89 7.94-1.54 4.96-3.84zm12.49-6.97c-3.61-3.79-6.3-3.91-12.88 0h12.88zm-13.35-115.99c-8.71-2-7.02-5.56-5.27-12.62-9.46 10.07-5.25 17 1.49 24.56-1.21-5.14-3.03-10.21 3.78-11.94zm-11.24 107.41c11.44-6.38 23.32-.97 35.29-1.61 1.76-2.99-61.38-10.67-35.29 1.61zm23.7-93.92v-4.97c-2.63-1.12-3.45 6.17 0 4.97zm-76.91 247.64l7.56 8.63c3.17-5.18 2.33-6.29-7.56-8.63zm-35.26-279.91l-1.21-1.51c-3.5 1.54-3.2 2.38 1.21 1.51zm47.31-15.47c6.21 2.13 5.3.13 4.54-6.44-9.78-3.1-19.26 9.04-4.54 6.44zm-46.44 187.04c-4.39-7.51 13.8-12.49-.35-20.3 5.62 9.63-5.82 11.35-6.29 20.85l-15.77-.75c-2.18 9.73 7.02 26.99-10.07 19.84 15.14 13.83 13.3-3.09 13.89-16.69 7.3 3.33 15.14 7.52 18.6-2.95zm47.95 89.33c2.06 8.83 4.4-2.01 2.05-7-1.38 2.97 2.13 6.11-2.05 7zm-93.97-227.71c-5.84-3.1-9.89-1.22-8.42 5.72l8.42-5.72zm-20.98 42.29c-6.73-4.01-10.7-11.46-17.53-15.5-5.99 5.72 7.14 10.32 17.53 15.5zm189.28 165.8l-6.55 5.05c3.09 1 5.17 1.8 6.28 1.4l.29-.16c.88-.62.87-2.41-.02-6.29zm62.25-173.66c-1.52-.62-3.67-3.73-4.82-1.5 1.73 2.31 2.64 4.82 4.82 1.5zm7.19-10.28l-6.31-8.7c-2.79 6.5-1.83 8.06 6.31 8.7zm2.62-19.27c2.4-4.13-1.22-3.8-2.9-.66 1.54.37 2.78.86 2.9.66zm-44.52 157.37l2.91-4.44c-3.44-1.07-4.8-.18-2.91 4.44zm-5.3-21.06c3.73-.41 5.48-.32 9.81.18-3.98-4.01-6.89-3.71-9.81-.18zm-26.71-14.9c2.08 3.96 5.04 4.4 8.14 4.65-.67-5.61-4.27-4.39-8.14-4.65zm31.88-155.33c1.38-.39 2.31-1 2.89-1.68a44.57 44.57 0 0 1-2.27-4.08c-.84.5-1.71 1.63-2.41 3.68-17.29-11.86-9.27 5.76 1.79 2.07zm6.89 217.82c3.9 3.31 5.95 2.2 7.68-1.27-3.03-3.34-5.17-2.31-7.68 1.27zm25.25-48.21c-1.08 2.19 4.7.82 5.4 1.17.88-2.76-4.29-.9-5.4-1.17zm-8.01-137.93c-1.6-4.36.75-10.67-5.63-10.56-2.02 6.64 6.8 17.3 13.1 11.3 1.47-1.41 4.03-1.68 7.9-3.15-5.87-3.34-2.95-6.89-2.12-11.28-1.08.34-2.19.56-3.31.67l-9.94 13.03zm-14.68 102.81c8.76.36 17.27 1.16 24.85 5.98-3.33-7.17-6.54-8.12-24.85-5.98zm15.48 6.42c-.81 12.5 3.77 12.83 13.11 11.58.52-9.35-9.42-5.17-13.11-11.58zm-200.32 178.16c-2.98-14.26-10.09-4.16-3.29 2.23 6.02 4.95 16.97-5.86 3.29-2.23zm13.79-12.35l-3.93 2.11c3.61 3.99 3.64 3.69 3.93-2.11zm-29.17-55.61c-2.08 1.51-2.66 4.32.41 4.48 2.11-1.37 1.94-3.25-.41-4.48zm-10.99-27.2c-4.12 1.53 0 3.97 1.38 7.43 2.43-4.73 1.15-6.39-1.38-7.43zm90.75.8c-1.78.05-3.64-.23-5.56-.87-.8.82-1.44 2-2.12 3.25 4.48 3.17 5.57-.11 7.68-2.37zm-119.89 61.11c4.49-4.53 8.45-22.49 7.5-31.37-4.05 10.11-5.66 20.76-7.5 31.37zm167.36-14.11l-9.75-5.67c2.88 4.3 4.56 6.94 9.75 5.67z"/><path d="M2677.08 369.94c12.35-1.22-1.16-8.42-6.08-3.68-1.34 4.11 3.19 4.51 6.08 3.68zm-15.48-148.38c-2.01.94-1.85 1.83-.02 3.67 1.42-1.88 2.74-3.3.02-3.67zm70.13 99.34c-3.53-1.39-3.12-8.78-10.51-5.74 3.95 2.2 4.35 8.36 10.51 5.74zm-102.67 6.13c-.18.58.67-.42.7-.8-.2.26-.74.54-.7.8zm200.53-158.91c1.34-7.65.79-9.09-6.24-9.78-2.03 3.19 3.55 5.42 6.24 9.78zm-14.69 86.52l-6.1-4.28c-.7 3.53 1.33 4.95 6.1 4.28zm-146.78-10.92c-1.8-.68-4.71-3.33-5.32.05 2.21 1.25 4.3 3.98 5.32-.05zm-3.53 99.65c-1.48 2.44 7.58 1.67 8.25 2.23 1.09-4.17-5.73-2.18-8.25-2.23zm-4.86-78.41c-.17-.25-.37.76.03.07.06-.51-.13-.82-.03-.07z"/><path d="M2659.76 264.39c.59-2.11 4.23-3.82-.01-7.82l.01 7.82zm-30 61.84c7.86-13.01 11.93-28.55 21.14-41.29 19.7-43.99-20.18 21.3-21.14 41.29zm.29-72.91c-1.73-.76-3.64-1.11-5.38-.17 1.08 2.67 4.33 3.31 5.38.17zm14.1 90.12l-6.47 7.07c5.98-.29 9.75-4.4 6.47-7.07zm-8.03-62.92c7.24-5.27-8.9-10.53-3.17-18.08-9.22-6.48-14.06 1.02-12.9 10.62 4.18-11.84 11.45 4.96 16.07 7.46zm81.27-76.08c-34.34-20.78 17.25 20.32 30.92 28.83 40.44 30.17-16.21-19.17-30.92-28.83zm146.8 109.59c-8.9-5.3-8.95 12.52.39 2.01-.17-.98-.14-1.93-.39-2.01zm16.51-15.96l-2.77 9.75c6.48-.24 8.26-6.27 2.77-9.75zm-20.54 43.85l2.56 7.27c2.69-3.29 1.84-5.71-2.56-7.27zm-13.7-36.98c18.05.07-3.65-18.45-.79-29.51-12.5 7.11 12.16 19.72.79 29.51zm54.86-54.94l6.17-5.68c-2.93.26-4.99 2.15-6.17 5.68zm-13.22 69.27c3.97.08 4.77-1.89 3.95-5.06-3.99-.62-5.56.75-3.95 5.06zm-5.3-171.73c-2.46.85-1.7 1.8.16 4.11 1.27-1.83 1.89-3.19-.16-4.11zm-40.29 50.04l1.76-4.89c-10.31-2.46-11.55-.96-1.76 4.89zm49.72 116.65c.16-.19-.09-.2-.23-.23.01.16.09.27.23.23zm-123.42 68.98l.9 9.69c14.92-5.99 15.47-10.24-.9-9.69zm-38.2-1.22c5.06-4.95-.38-9.63-2.41-15.42-7.29 8.54-4.79 13.29 2.41 15.42zm-10.38-180.17c13.13 3.73 72.73 5.61 62.96-1.48-19.84 2.69-46.49-4.84-62.96 1.48zm30.38 155.43c-4.27 2.17 3.45 2.96 4.3 4.09-8.35 3.64-19.63 30.9-8.45 24.43 1.09-4.29 4.69-7.82 3.39-12.94-.09-5.78 12.4-10.84.76-15.58zm65.55 15.44c-3.13.88-4.45 3.32-1.86 5.06 3.37-1.11 5.49-3.63 1.86-5.06zm15.46-.71c-3.29 6.42-.28 12.02-1.13 18.2 4.37-4.12 4.6-4.84 2.56-18.2a33.61 33.61 0 0 1-1.42 0zm-51.89-120.52c-2.49-4.16-3.51.34-5.68 3.56 4.09-.17 6.09-.63 5.68-3.56zm-10.17 56.5c2.94 1.28 6.02 1.16 8.27-2.99-4.3-.44-15.95-5.57-8.27 2.99zm-92.39-91.02c2.81-3.94-2.59-8.86-6.89-9.92-.62 4.31 2.5 11 6.89 9.92zm116.48-63.25c-.45-10.29-2.62-2.46-5.82 2.95 3.55 1.1 6.41 2.16 5.82-2.95zm-110.73 65.77c-4.12 3.28-1.61 6.86-1.94 9.7l1.94-9.7zm3.77-4.63l3.69-7.53c-4.57 1.59-4.95 4.07-3.69 7.53zm-27.23-50.85c-.23-.01-.34-.03-.2.23l.2-.23z"/><path d="M2659.46 163.98l-.2.23c.23-.06.46-.04.2-.23zm25.63 23.22c-16.56 7.93 78.86 3.25 88.55 1.65-35.64-6.03-76.26 9.25-104.24-18.44-20.31-16.12 9.21 9.19 15.69 16.8zm-25.91-23.22c-2.02-5.53-5.9-8.92-12.94-10.65 2.83 4.89 5.66 13 12.94 10.65zm153.34-27.18c6.82 4.73 8.66 4.75 14.02-.4-9.92-.39-9.72-12.23-21.58-8.17 1.35 1.19 9.57 2.43 6.99 5.59-13.74 3.51-12.54 8.57.56 2.97zm-211.81 54.47c1.3.34 2.86.53 4.64.61l-1.49-2.02a45.76 45.76 0 0 1-3.37-4.35c-31.97 1.82-51.48 6.15.22 5.75zm69.61 8.77c2.17 1.52 4.04-2.95 4.63-4.48 2.25-6.47-12.28-9.44-31.26-10.42-.84 1.42-1.8 2.78-2.85 4.05 15.58-1.03 29.33.07 29.48 10.86zm61.91-120.71l-8.09-1.35c2.26 4.97 4.13 4.72 8.09 1.35zm5.46-13.13c-1.2 2.22-1.33 4.89-.4 8 1.25-2.49 1.39-5.4.4-8zm-1.88 112.49c5.82-1.73 4.2-5.21 3.03-9.5-5.19 2.75-3.95 5.88-3.03 9.5zm35.98-97.82l-8.97-2.3c-2.81 8.64 4.85 2.8 8.97 2.3zm-56.72-6.3l-2.89-3.63c-3 .83.45 3.65.96 5.05l1.92-1.42zm-48.58 40.14c-1.82 1.55-1.32 2.29.26 3.96 2.43-1.75 1.26-2.47-.26-3.96zm12.42 51.05c3.72-.29 1.96-2.32.25-5.07-2.07 2.16-2.76 3.69-.25 5.07zm12.12-38.98l4.83 5.43c2.97-5.15-.7-15.47-4.83-5.43zm-43-3.27c-1.39 2.41-.73 5.85 1.98 10.33l-1.98-10.33zm43.5 47.16l5.07-.53c.99-2.58-6.8-2.52-5.07.53zm16.87-8.43l-6.67-5.5c.44 3.13 2.66 4.96 6.67 5.5zm-124.32 140.27c2.75-4.42 6.38-9.7 1.73-14.41-6.06 3.17-13.48 12.12-1.73 14.41zm-1.05 57.19l4.34 8.84c.57-3.77-.87-6.72-4.34-8.84zm-29.2-52.13c.41.52.28.24.23-.21-.44-.3-.4-.15-.23.21zm18.5 37.21c12.83.79-9.31-22.83-12.67-30.27-13.88-15.37 8.74 21.66 12.67 30.27zm38.92-83.01c-2.08-6.14-10.58-5.54-15.75-9.21 4.77 6.16 6.94 15.75 15.75 9.21zm-8.41 86.42l-.16.18c.18.94.21.51.16-.18z"/><path d="M2604.99 361.41c2.5-4.96-.87-8.49-2.14-12.39 0 4.12-1.33 8.48 2.14 12.39zm-2.31-13.06l.15-.17c-.08-.36-.1-.05-.15.17zm-3.36-12.64c3.22 18.59 6.36 6.62 3.96-5.87 2.54-20.16 4.98-39.59-.69-58.34-10.52 14.68 14.19 53.71-11.46 52.95.06 2.59 1.06 4.11 3.11 4.73 4.36.26 4.49 3.22 5.08 6.53zm-4.28-83.26c.25-.23.27-.24 0 0 .98.59-.27-1.24 0 0zm197.14-191.92l8.1-.83c-.46-5.22-6.48-5.91-8.1.83zM2530.9 343.79c.21 4.91 1.82 6.18 10.52 6.85l-10.52-6.85zm5.94-124.29l7.77-2.5c-5.06-3.25-6.53-2.03-7.77 2.5zm-30.9 81.79l-3.53 7.32c5.67-.5 3.2-3.42 3.53-7.32zm39.53 68.62c-4.7 4.26-7.26 4.88-12.25.58 2.1 9.18 20.94 20.72 28.73 21.29-5.69-7.77-20.6-9.59-16.48-21.87zm-25.51-41.29c-.5 3.6-1.34 6.37.83 9.09 2.28-2.96 3.13-5.84-.83-9.09zm-49.92 38.08l-4.76-5.93c-1.57 3.97.02 5.95 4.76 5.93zm51.38 18.62c-3.41-1.32-5.67 1.03-8.77 4.79 6.89 1.33 17.1 2.58 8.77-4.79zm-36.11-49.46l6.52-5.93c-4.66.38-6.4 1.4-6.52 5.93zm-20.82-93.21l3.27 5.68c5.31-5.16.84-8.46-3.27-5.68zm14.61 78.45c3.13-.38.59-3.02.25-5.01-2.35.17-.16 3.39-.25 5.01zm39.05-8.9c2.59 2.6 4.81 2.33 7.82-.54-3.01-.89-5.23-3.8-7.82.54zm-40.32-52.3c1.29.43 4.47 3.81 5.13.95-2.07-1.24-3.79-4.46-5.13-.95zm12.23 95.47l-6.44-4.97c-.07 4.85 1.83 5.43 6.44 4.97zm-7.57-122.19c2.42-.67 7.71-.37 7.04-3.83-3.1-5.98-14.83.99-7.04 3.83zm391.4 13.84c-3.64 5.4-6.85 2.46-10.99-.32-2.76 12.39 19.65-5.12 25.56 36.42 9.38 7.66 10.43 21.43 3.85 30.95 5.91 1.59 6.1 1.76 4.27 6.87 7.41 7.45.87-40.2-9.23-53.08-2.19-7.41-5.22-17.07-13.46-20.85zm-3.7 114.53c-.34 8.08 2.53 7.18 2-.21l-2 .21zM2596.4 400h5.5c1.8-1.67-4.54-.28-5.5 0zm264-19.74c1.78 1.73 2.73-.77 3.65-1.96-1.61.12-4.48-.75-3.65 1.96zm-287.52-128.51c-.18-8.37 7.8-8.17 10.45-14.81 13.78 19.46 14.71 14.06 3.28-4.94-10.78 1.75-15.04 12.19-20.4 20.81v5.86c2.87-1.93 5.44-4.04 6.68-6.92z"/></g><path d="M2564.23 285.05h0c18.39-39.37-44.56-50.11-57.38-18.35-5.25 37.57 39.47 51.71 57.38 18.35zM2544.71 268c17.47-3.06 2.85 17.01-8.32 15.82h0c-30.5 14.61-7.82-16.98 8.32-15.82zm196.75 29.59c19.9-.56 30.25-41.25 9.32-53.79h0c-39.32-19.68-65.29 27.36-24.37 46.92 3.27 3.05 6.46 4.98 9.49 5.99 1.92.64 3.78.92 5.56.87zm-15.25-27.17c.22-15 29.44-21.71 21.03-2.76h0c-3.44 8.56-16.97 9.97-21.03 2.76zm111.31 44.45c-4.59-1.1-8.77-.45-12.43 1.43-.1.05-.19.11-.29.16-17.51 9.38-22.77 46.97-2.34 53.75 3.23 1.13 6.29 1.69 9.17 1.77.48.01.95.02 1.42 0 28.9-.73 37.81-50.48 4.47-57.11zm-6.91 35.13c.44-8.66 4.48-15.16 12.97-15.01 8.79 6.06-6.19 14.29-12.97 15.01zm-225.26-158.12c10.37 12.89 26.42 8.27 35.49-2.7 1.05-1.27 2.01-2.63 2.85-4.05 4.99-8.42 6.01-19.21-1.01-28.78h0c-17.61-21.56-62.1-.31-42.18 29.17a45.76 45.76 0 0 0 3.37 4.35c.48.72.98 1.38 1.49 2.02zm12.33-21.47c10.24-10.79 24.92-2.99 9.83 8.12h0c-7.08 3.65-17.03.3-9.83-8.12zm113.5-42.53c11.63 41.91 64.48 14.4 44.95-20.79-10.96-21.47-60.24-2.72-44.95 20.79zm31.6-12.27h0c12.98 1.92-5.31 19.98-13.44 12.62-3.27-6.32 6.41-13.67 13.44-12.62zm-159.43 271.64c2.2 4.36 5.22 8.29 7.24 12.75h39.5c2.48-4.56 3.83-9.66 3.91-14.88 6.55-37.37-61.36-30-50.65 2.13zm29.29 3.7h0c-3.29 1.27-9.88 1.05-10.15-3.58 6.03-18.76 31.44-6.82 10.15 3.58zm253.91-299.42c1.12-.11 2.23-.33 3.31-.67 4.25-1.32 8.12-4.49 11.17-10.08.46-.98.87-1.99 1.26-3-3.8-4.55-7.94-8.8-12.43-12.71-.16.2-.3.41-.48.61-2.48 3.05-5.48 5.29-9.25 4.81-2.94-.99-9.42-1.44-9.76-5.21 1.5-3.77 3.22-7.47 6.1-10.2-6.27-3.98-12.89-7.3-19.8-9.98-1.09 1.07-2.19 2.12-3.38 3.06-3.05 2.23-4.35 6.15-3.25 9.76h0c.49 2.99 1.56 6.11 3.07 9.19a44.57 44.57 0 0 0 2.27 4.08c7.19 11.53 20.02 21.39 31.18 20.33zm35.45 75.56c-4.19-.33-8.43.06-12.53 1.22-14.26 2.74-33.02 11.09-26.02 28.77 3.86 17.14 13.23 30.02 32.58 25.47 2.04-.22 4.04-.69 5.97-1.34v-20.73c-2.19 1.38-4.84 2.34-8.07 2.77-5.19.69-10.39.74-13.65 6.06-7.38-8.34 5.09-16.02 11.51-19.86h0c3.31-1.44 6.74-2.09 10.21-2.39V167.1z" fill="#4ecbb9"/><path class="R" d="M0 0h2922v400H0z" fill="url(#G)" opacity=".3"/></svg>